<svg xmlns="http://www.w3.org/2000/svg" xmlns:xlink="http://www.w3.org/1999/xlink" width="34.504" height="24.066" viewBox="0 0 34.504 24.066"><defs><style>.a{fill:url(#a);}</style><linearGradient id="a" x1="0.5" y1="0.96" x2="0.5" y2="0.069" gradientUnits="objectBoundingBox"><stop offset="0.322" stop-color="#a163f5"/><stop offset="0.466" stop-color="#b074ee"/><stop offset="0.752" stop-color="#d8a1dd"/><stop offset="0.898" stop-color="#efbad3"/></linearGradient></defs><g transform="translate(-8 -176)"><path class="a" d="M40.556,176H9.948A2.173,2.173,0,0,0,8,178.34v19.386a2.173,2.173,0,0,0,1.948,2.34H40.556a2.173,2.173,0,0,0,1.948-2.34V178.34A2.173,2.173,0,0,0,40.556,176ZM9.948,177.337H40.556a.925.925,0,0,1,.833.97L25.252,190.584,9.114,178.307A.925.925,0,0,1,9.948,177.337Zm-.011,21.391a.934.934,0,0,1-.824-1V179.889l8.177,6.22Zm1.359,0,6.936-11.9,6.723,5.115a.48.48,0,0,0,.6,0l6.723-5.115,6.936,11.9Zm30.1-1a.934.934,0,0,1-.824,1l-7.354-12.619,8.177-6.22Z"/></g></svg>