<svg xmlns="http://www.w3.org/2000/svg" width="68.841" height="41.201" viewBox="0 0 68.841 41.201"><defs><style>.a{fill:#009ddd;}.b{fill:#ed1c2e;}.c{fill:#fff;}</style></defs><g transform="translate(0 0)"><g transform="translate(0 0)"><path class="a" d="M94.549,166.315a20.6,20.6,0,1,0-13.8,5.326,20.506,20.506,0,0,0,13.8-5.326Z" transform="translate(-60.13 -130.442)"/><path class="a" d="M230.767,187.394a20.591,20.591,0,0,0,0-30.546v30.546Z" transform="translate(-196.348 -151.522)"/></g><path class="b" d="M219.7,130.446a20.6,20.6,0,0,0-13.842,5.326,26.449,26.449,0,0,0-2.058,2.181h4.156a26.447,26.447,0,0,1,1.574,2.178h-7.3q-.664,1.09-1.211,2.179H210.7c.325.725.645,1.454.888,2.18H200.174a19.713,19.713,0,0,0-.606,2.219H212.2a21.932,21.932,0,0,1,.445,4.357,20.733,20.733,0,0,1-1.051,6.538H200.174q.36,1.088.845,2.179H210.7a22.4,22.4,0,0,1-1.171,2.179h-7.3a21.881,21.881,0,0,0,1.574,2.179h4.156a21.2,21.2,0,0,1-2.1,2.179A20.6,20.6,0,1,0,219.7,130.446Z" transform="translate(-171.442 -130.445)"/><g transform="translate(6.86 15.295)"><path class="c" d="M366.194,252.116a.673.673,0,0,1,.687-.645.636.636,0,0,1,.645.645.672.672,0,0,1-.645.687.708.708,0,0,1-.687-.687Zm.687.525a.5.5,0,0,0,.484-.525.467.467,0,0,0-.484-.485.5.5,0,0,0-.523.485.533.533,0,0,0,.523.525Zm-.081-.242h-.161v-.565h.241c.079,0,.121,0,.162.041s.079.079.079.121c0,.081-.04.162-.121.162l.121.241h-.162l-.079-.2H366.8v.2Zm0-.322h.16v-.123H366.8v.123Z" transform="translate(-311.318 -242.353)"/><path class="c" d="M105.317,216.717h-2.581l1.533-8.03-3.51,8.03H98.416l-.4-7.99-1.533,7.99H94.14l1.978-10.451h4.033l.2,6.455,2.828-6.455h4.152Z" transform="translate(-94.14 -206.266)"/><path class="c" d="M276.247,216.6a6.553,6.553,0,0,1-1.858.281c-1.29,0-2.018-.645-2.018-1.855a5.709,5.709,0,0,1,.081-.768l.161-.848.124-.645,1.169-6.5h2.541l-.361,1.935h1.33l-.362,2.06h-1.331l-.645,3.55a1.956,1.956,0,0,0-.081.363c0,.445.283.644.889.644a2.931,2.931,0,0,0,.685-.08l-.323,1.858Z" transform="translate(-236.42 -206.269)"/><path class="c" d="M302.237,215.629a.687.687,0,0,0-.282-.082c-.122-.042-.2-.042-.2-.08h-.282a2.653,2.653,0,0,0-2.221,1.371l.241-1.291h-2.341l-1.573,8.515h2.583c.928-5.207,1.291-6.134,2.541-6.134.081,0,.2.041.323.041l.283.08.929-2.419Z" transform="translate(-254.946 -213.611)"/><path class="c" d="M237.334,217.936c0,1.05.606,1.816,1.978,2.342,1.05.442,1.211.565,1.211.968,0,.524-.485.767-1.494.767a8.317,8.317,0,0,1-2.341-.362l-.323,1.977h.122l.442.12c.161,0,.4.041.685.041a10.555,10.555,0,0,0,1.454.079c2.7,0,3.995-.888,3.995-2.824,0-1.171-.525-1.856-1.856-2.381-1.091-.4-1.211-.525-1.211-.928,0-.442.444-.685,1.291-.685a16.9,16.9,0,0,1,1.855.12l.364-1.936a15.484,15.484,0,0,0-2.26-.161c-2.9,0-3.914,1.289-3.914,2.862Z" transform="translate(-207.678 -213.297)"/><path class="c" d="M162.658,223.742h-2.1l.042-.889a3.5,3.5,0,0,1-2.7,1.009,2.214,2.214,0,0,1-2.34-2.3c0-2.059,1.652-3.269,4.52-3.269a9.937,9.937,0,0,1,1.048.042,1.615,1.615,0,0,0,.081-.525c0-.565-.445-.767-1.655-.767a10.834,10.834,0,0,0-2.1.2l-.362.121-.243.039.362-1.9a11.618,11.618,0,0,1,3.069-.444c2.217,0,3.348.846,3.348,2.46a9.026,9.026,0,0,1-.2,1.7l-.525,3.027-.081.524-.082.445-.04.281-.041.243Zm-1.856-3.794a3.343,3.343,0,0,0-.565-.04c-1.454,0-2.179.444-2.179,1.292a.825.825,0,0,0,.886.888,1.98,1.98,0,0,0,1.858-2.14Z" transform="translate(-143.169 -213.292)"/><path class="c" d="M204.939,223.372a9.765,9.765,0,0,1-2.623.362c-2.861,0-4.357-1.332-4.357-3.834,0-2.906,1.9-5.044,4.48-5.044,2.1,0,3.432,1.211,3.432,3.067a8.674,8.674,0,0,1-.283,2.1h-5.127v.283c0,.968.727,1.492,2.22,1.492a6.816,6.816,0,0,0,2.662-.523l-.4,2.1Zm-1.371-5.043v-.445c0-.685-.445-1.091-1.211-1.091-.808,0-1.372.565-1.616,1.535Z" transform="translate(-177.018 -213.124)"/><path class="c" d="M332.432,219.536c-.4,2.823-2.381,4.074-5,4.074-2.863,0-4.032-1.734-4.032-3.913a4.765,4.765,0,0,1,5.042-5.046,3.711,3.711,0,0,1,4.076,3.834,4.349,4.349,0,0,1-.081,1.051Zm-2.662-1.091c0-.888-.364-1.692-1.411-1.692-1.294,0-2.1,1.531-2.1,2.9,0,1.131.566,1.9,1.454,1.9a2.5,2.5,0,0,0,1.977-2.057,4.458,4.458,0,0,0,.08-1.051Z" transform="translate(-277.152 -212.96)"/></g></g></svg>