<svg xmlns="http://www.w3.org/2000/svg" width="76.201" height="48.091" viewBox="0 0 76.201 48.091"><defs><style>.a{fill:red;}.b{fill:#ff9a00;}.c{fill:#ff5000;}.d{fill:#354660;}</style></defs><g transform="translate(0 0)"><g transform="translate(10.489 0)"><path class="a" d="M139.925,151.82a16.988,16.988,0,0,1,6.31-13.229,17.022,17.022,0,1,0,0,26.458A16.991,16.991,0,0,1,139.925,151.82Z" transform="translate(-118.5 -134.797)"/><path class="b" d="M266.713,134.8A16.951,16.951,0,0,0,256,138.591a17.022,17.022,0,0,1,0,26.457A17.023,17.023,0,1,0,266.713,134.8Z" transform="translate(-228.265 -134.796)"/><path class="c" d="M237.339,166.839a16.987,16.987,0,0,0-6.31-13.229,17.022,17.022,0,0,0,0,26.457A16.99,16.99,0,0,0,237.339,166.839Z" transform="translate(-203.294 -149.815)"/></g><path class="d" d="M5.992-39.714H4.072v-5.428A14.753,14.753,0,0,0,4-46.7H5.811l.028,1.169a2.252,2.252,0,0,1,2.2-1.308,2.266,2.266,0,0,1,1.322.376,1.931,1.931,0,0,1,.752,1,2.052,2.052,0,0,1,.863-1,2.436,2.436,0,0,1,1.294-.376q2.269,0,2.269,2.6v4.523H12.617V-44.07q0-1.392-1.072-1.392a1.05,1.05,0,0,0-.981.55,2.645,2.645,0,0,0-.313,1.329v3.869H8.344V-44.07q0-1.392-1.058-1.392a1.05,1.05,0,0,0-.981.55,2.645,2.645,0,0,0-.313,1.329ZM21.052-43.04h-.39q-2.352,0-2.352,1.253a.992.992,0,0,0,.285.766,1.052,1.052,0,0,0,.745.264,1.5,1.5,0,0,0,1.273-.578,2.269,2.269,0,0,0,.438-1.413Zm1.921,3.326H21.163l-.042-1.03a2.52,2.52,0,0,1-2.283,1.183,2.536,2.536,0,0,1-1.684-.571,1.94,1.94,0,0,1-.682-1.573q0-2.352,3.744-2.352.306,0,.835.028v-.237q0-1.364-1.656-1.364a4.282,4.282,0,0,0-2.046.529l-.084-1.28a6.389,6.389,0,0,1,2.408-.459q3.229,0,3.229,2.714v2.77A15.259,15.259,0,0,0,22.972-39.714ZM25-39.895l.084-1.461a4.085,4.085,0,0,0,1.921.473q1.211,0,1.211-.807a.661.661,0,0,0-.334-.55,3.413,3.413,0,0,0-.814-.4q-.48-.167-.96-.376a2.032,2.032,0,0,1-.814-.647,1.705,1.705,0,0,1-.334-1.065,1.75,1.75,0,0,1,.466-1.239,2.48,2.48,0,0,1,1.093-.7,4.426,4.426,0,0,1,1.322-.195,7.006,7.006,0,0,1,1.921.264L29.681-45.2a4.606,4.606,0,0,0-1.726-.334q-1.141,0-1.141.71a.565.565,0,0,0,.334.487,4.13,4.13,0,0,0,.807.348,9.878,9.878,0,0,1,.946.362,1.983,1.983,0,0,1,.807.668,1.865,1.865,0,0,1,.334,1.127A1.99,1.99,0,0,1,29.59-40.5a2.329,2.329,0,0,1-1.079.738,4.522,4.522,0,0,1-1.392.2A6.325,6.325,0,0,1,25-39.895Zm11.218-1.211.056,1.28a5.032,5.032,0,0,1-1.6.264,1.734,1.734,0,0,1-1.552-.633,3.316,3.316,0,0,1-.424-1.844v-3.4H31.448V-46.7H32.7v-1.42l1.921-.626V-46.7H36.18v1.267H34.622v3.424q0,1.058.835,1.058A2.084,2.084,0,0,0,36.222-41.106Zm3.368-2.77h2.937a2.5,2.5,0,0,0-.306-1.294,1.1,1.1,0,0,0-1.03-.515,1.383,1.383,0,0,0-1.155.536A2.148,2.148,0,0,0,39.59-43.875Zm4.663,1.086H39.59a1.892,1.892,0,0,0,.612,1.434,2.471,2.471,0,0,0,1.684.515,3.821,3.821,0,0,0,1.921-.459l.084,1.336a5.647,5.647,0,0,1-2.227.4,4.116,4.116,0,0,1-2.937-.96,3.555,3.555,0,0,1-1.016-2.714,3.6,3.6,0,0,1,.967-2.589,3.3,3.3,0,0,1,2.5-1.016q3.076,0,3.076,3.591Zm3.911,3.076H46.243v-5.428a14.594,14.594,0,0,0-.07-1.545h1.809l.042,1.35a2.964,2.964,0,0,1,.786-1.079,1.746,1.746,0,0,1,1.176-.438,1.894,1.894,0,0,1,.557.07l-.056,1.726a1.651,1.651,0,0,0-.6-.1,1.423,1.423,0,0,0-1.3.689,3.056,3.056,0,0,0-.424,1.635Zm9.242-1.475.07,1.364a6.115,6.115,0,0,1-1.921.264,3.913,3.913,0,0,1-2.784-.988,3.5,3.5,0,0,1-1.058-2.686,3.338,3.338,0,0,1,1.1-2.631,4.062,4.062,0,0,1,2.8-.974,6.518,6.518,0,0,1,1.851.251l-.083,1.364A3.1,3.1,0,0,0,56-45.532a2.128,2.128,0,0,0-1.635.633,2.338,2.338,0,0,0-.592,1.663,2.412,2.412,0,0,0,.585,1.67,2.071,2.071,0,0,0,1.628.654A3.588,3.588,0,0,0,57.405-41.189Zm6.11-1.851h-.39q-2.352,0-2.352,1.253a.992.992,0,0,0,.285.766,1.052,1.052,0,0,0,.745.264,1.5,1.5,0,0,0,1.274-.578,2.269,2.269,0,0,0,.438-1.413Zm1.921,3.326H63.627l-.042-1.03A2.52,2.52,0,0,1,61.3-39.561a2.536,2.536,0,0,1-1.684-.571,1.94,1.94,0,0,1-.682-1.573q0-2.352,3.744-2.352.306,0,.835.028v-.237q0-1.364-1.656-1.364a4.282,4.282,0,0,0-2.046.529l-.084-1.28a6.389,6.389,0,0,1,2.408-.459q3.229,0,3.229,2.714v2.77A15.258,15.258,0,0,0,65.436-39.714Zm4.217,0H67.733v-5.428a14.59,14.59,0,0,0-.07-1.545h1.809l.042,1.35a2.964,2.964,0,0,1,.786-1.079,1.746,1.746,0,0,1,1.176-.438,1.894,1.894,0,0,1,.557.07l-.056,1.726a1.651,1.651,0,0,0-.6-.1,1.423,1.423,0,0,0-1.3.689,3.056,3.056,0,0,0-.424,1.635Zm10.55,0H78.422l-.07-1.141a2.249,2.249,0,0,1-2.213,1.294,2.67,2.67,0,0,1-1.7-.543,2.85,2.85,0,0,1-.96-1.336,5.53,5.53,0,0,1-.271-1.8,4.37,4.37,0,0,1,.724-2.575,2.507,2.507,0,0,1,2.2-1.03A2.459,2.459,0,0,1,77.4-46.5a1.93,1.93,0,0,1,.828.953v-4.2h1.921v8.087Q80.147-40.479,80.2-39.714Zm-4.663-1.962a1.287,1.287,0,0,0,1.225.779,1.2,1.2,0,0,0,1.148-.71,3.562,3.562,0,0,0,.355-1.615,4.24,4.24,0,0,0-.118-1.03,1.938,1.938,0,0,0-.473-.856,1.2,1.2,0,0,0-.926-.383q-1.489,0-1.489,2.269A3.566,3.566,0,0,0,75.541-41.676Z" transform="translate(-4.002 87.652)"/></g></svg>