<svg xmlns="http://www.w3.org/2000/svg" xmlns:xlink="http://www.w3.org/1999/xlink" width="28.537" height="28.538" viewBox="0 0 28.537 28.538"><defs><style>.a{fill:url(#a);}</style><linearGradient id="a" x1="0.5" y1="0.96" x2="0.5" y2="0.069" gradientUnits="objectBoundingBox"><stop offset="0.322" stop-color="#a163f5"/><stop offset="0.466" stop-color="#b074ee"/><stop offset="0.752" stop-color="#d8a1dd"/><stop offset="0.898" stop-color="#efbad3"/></linearGradient></defs><path class="a" d="M2.929,28.538A2.933,2.933,0,0,1,0,25.608V20.1a2.933,2.933,0,0,1,2.929-2.929H4.251v1.875h-2a.374.374,0,0,0-.374.373V26.29a.374.374,0,0,0,.374.373H26.29a.374.374,0,0,0,.373-.373V19.422a.374.374,0,0,0-.373-.373h-2V17.174h1.321A2.932,2.932,0,0,1,28.537,20.1v5.5a2.932,2.932,0,0,1-2.929,2.929Zm16.843-5.682a1.1,1.1,0,1,1,1.1,1.1A1.1,1.1,0,0,1,19.773,22.856Zm-4.4,0a1.1,1.1,0,1,1,1.1,1.1A1.1,1.1,0,0,1,15.37,22.856Zm-4.4,0a1.1,1.1,0,1,1,1.1,1.1A1.1,1.1,0,0,1,10.966,22.856Zm-4.4,0a1.1,1.1,0,1,1,1.1,1.1A1.1,1.1,0,0,1,6.562,22.856Zm-.287-3.127V6.824H9.8V4.382a4.471,4.471,0,0,1,8.941,0V6.824h3.524v12.9ZM7.723,18.2H20.814V8.358H7.723ZM11.841,3.871V6.824h4.852V3.871c0-1.007-1.37-1.827-2.426-1.827S11.841,2.864,11.841,3.871ZM12.99,15.149v-1.6a1.651,1.651,0,1,1,2.556,0v1.6Z"/></svg>