<svg xmlns="http://www.w3.org/2000/svg" width="67.338" height="44.892" viewBox="0 0 67.338 44.892"><defs><style>.a{fill:#fff;}</style></defs><path class="a" d="M60.293,35.482H56.259q.409-1.081,1.929-5.232l.088-.263q.117-.292.292-.76t.263-.76l.351,1.607Zm-42.2-1.9-1.7-8.622A1.937,1.937,0,0,0,14.2,23.382H6.37l-.058.38q9.089,2.309,11.778,9.82Zm5.231-10.2-4.735,12.8-.5-2.6A10.627,10.627,0,0,0,15.606,29.8a11.334,11.334,0,0,0-3.829-2.587l3.946,14.905h5.115l7.628-18.734H23.321Zm4.062,18.763h4.852l3.04-18.763H30.423ZM49.83,23.85a11.845,11.845,0,0,0-4.355-.789A9.473,9.473,0,0,0,39.6,24.785a5.437,5.437,0,0,0-2.309,4.472q-.029,2.981,4.238,5.085a8.083,8.083,0,0,1,1.958,1.2,1.557,1.557,0,0,1,.555,1.14,1.462,1.462,0,0,1-.877,1.344,4.22,4.22,0,0,1-2.017.468,10.56,10.56,0,0,1-4.559-.964l-.643-.321-.672,4.209a12.949,12.949,0,0,0,5.407.994,9.65,9.65,0,0,0,6.094-1.724,5.746,5.746,0,0,0,2.353-4.676q0-3.1-4.092-5.085A14.123,14.123,0,0,1,42.961,29.7a1.407,1.407,0,0,1-.643-1.111,1.365,1.365,0,0,1,.716-1.125,3.681,3.681,0,0,1,2.06-.482,8.251,8.251,0,0,1,3.624.7l.438.234Zm12.421-.468H58.51a2.483,2.483,0,0,0-2.543,1.578l-7.19,17.185h5.085l1.023-2.806h6.2q.146.643.585,2.806h4.5Zm7.657-9.352V51.44a3.793,3.793,0,0,1-3.741,3.741H6.312a3.6,3.6,0,0,1-2.63-1.111,3.6,3.6,0,0,1-1.111-2.63V14.03A3.6,3.6,0,0,1,3.681,11.4a3.6,3.6,0,0,1,2.63-1.111H66.167a3.793,3.793,0,0,1,3.741,3.741Z" transform="translate(-2.571 -10.289)"/></svg>