<svg xmlns="http://www.w3.org/2000/svg" xmlns:xlink="http://www.w3.org/1999/xlink" width="211.288" height="73.643" viewBox="0 0 211.288 73.643"><defs><style>.a{fill:#fff;}.b{fill:#b8259c;}.c{fill:url(#a);}.d{clip-path:url(#b);}.e{fill:url(#c);}</style><linearGradient id="a" x1="0.5" x2="0.5" y2="1" gradientUnits="objectBoundingBox"><stop offset="0" stop-color="#be28a1"/><stop offset="1" stop-color="#7e106b"/></linearGradient><clipPath id="b"><path class="a" d="M50.677,0A104.8,104.8,0,0,1,73.232,2.362c-.228,11.067.7,24.206.606,40.445a104.062,104.062,0,0,1-23.161,2.5C22.689,45.306,0,35.164,0,22.653S22.689,0,50.677,0Z" transform="translate(0 1)"/></clipPath><linearGradient id="c" x1="0.5" x2="0.5" y2="1" gradientUnits="objectBoundingBox"><stop offset="0" stop-color="#d943bc"/><stop offset="1" stop-color="#8b1376"/></linearGradient></defs><g transform="translate(10647.793 17964.996)"><path class="b" d="M1.512-17.136H18.337a18.2,18.2,0,0,1,6.295.941,11.134,11.134,0,0,1,4.059,2.471,9.064,9.064,0,0,1,2.206,3.5,12.158,12.158,0,0,1,.677,3.971,8.935,8.935,0,0,1-.588,3.236A8.37,8.37,0,0,1,29.309-.311,9.625,9.625,0,0,1,26.72,1.66,9.69,9.69,0,0,1,23.4,2.689l.118.118a6.773,6.773,0,0,1,1.941.353,10.677,10.677,0,0,1,3.206,1.559,11.154,11.154,0,0,1,3,3.177A9.365,9.365,0,0,1,32.986,13.1a11.435,11.435,0,0,1-1.059,5.059,10.4,10.4,0,0,1-2.971,3.677A13.206,13.206,0,0,1,24.338,24.1a22.032,22.032,0,0,1-6,.765H1.512ZM18.337,1.925q5.353,0,8-2.383a8.026,8.026,0,0,0,2.647-6.265,7.724,7.724,0,0,0-.882-3.853,7.282,7.282,0,0,0-2.353-2.53,9.836,9.836,0,0,0-3.383-1.382,19.1,19.1,0,0,0-4.03-.412H4.1V1.925Zm0,20.708q5.648,0,8.854-2.383T30.4,13.1a8.065,8.065,0,0,0-1.118-4.442,8.271,8.271,0,0,0-2.853-2.736,11.88,11.88,0,0,0-3.883-1.382,23.965,23.965,0,0,0-4.206-.382H4.1V22.632Zm39.886-3.765h-.118a9.326,9.326,0,0,1-1.53,2.559,10.838,10.838,0,0,1-2.441,2.147,12.1,12.1,0,0,1-3.265,1.471,14.308,14.308,0,0,1-4,.529q-4.824,0-7.471-2.088t-2.647-6.442A7.98,7.98,0,0,1,37.81,12.72a8.029,8.029,0,0,1,2.677-2.647A11.482,11.482,0,0,1,44.075,8.69,35.111,35.111,0,0,1,47.869,8.1l3.471-.294a20.5,20.5,0,0,0,3.794-.559A4.848,4.848,0,0,0,57.223,6.19a3.016,3.016,0,0,0,.882-1.735,16.525,16.525,0,0,0,.176-2.647,5.585,5.585,0,0,0-.471-2.294A5.142,5.142,0,0,0,56.341-2.37a7.279,7.279,0,0,0-2.588-1.294,13.828,13.828,0,0,0-3.883-.471,10.185,10.185,0,0,0-6.559,2,7.92,7.92,0,0,0-2.736,6.059H38.339q.235-5,3.206-7.5t8.442-2.5q5.471,0,7.971,2.147a7.05,7.05,0,0,1,2.5,5.618v17.59q0,.647.029,1.294a4.333,4.333,0,0,0,.206,1.177,1.767,1.767,0,0,0,.588.853,1.868,1.868,0,0,0,1.177.324,10.728,10.728,0,0,0,1.647-.176v1.883a7.048,7.048,0,0,1-1.824.235,5.381,5.381,0,0,1-2.147-.353,2.827,2.827,0,0,1-1.206-.941,3.484,3.484,0,0,1-.559-1.382,9.547,9.547,0,0,1-.147-1.735Zm0-11.178a4.242,4.242,0,0,1-2.5,1.353,31.124,31.124,0,0,1-3.736.529l-3.765.353q-1.647.176-3.294.5a9.583,9.583,0,0,0-2.971,1.088A6.081,6.081,0,0,0,39.81,13.6a6.433,6.433,0,0,0-.824,3.441A5.857,5.857,0,0,0,41.1,22.015a9.385,9.385,0,0,0,5.824,1.618,11.457,11.457,0,0,0,6.059-1.382A10.722,10.722,0,0,0,56.4,19.073,9.767,9.767,0,0,0,57.9,15.6a14.805,14.805,0,0,0,.324-2.265ZM67.577-5.37h2.236V1.1h.118a9.7,9.7,0,0,1,1.677-3.03,11.136,11.136,0,0,1,5.677-3.677,12.993,12.993,0,0,1,3.471-.471,13.732,13.732,0,0,1,4.5.647,8.811,8.811,0,0,1,3.03,1.706A8.242,8.242,0,0,1,90.138-1.34a11.012,11.012,0,0,1,.971,2.677,15.778,15.778,0,0,1,.353,2.618q.059,1.265.059,2.206V24.868H89.285V5.748q0-1.118-.176-2.824A8.585,8.585,0,0,0,88.079-.34,7.473,7.473,0,0,0,85.49-3.017,8.805,8.805,0,0,0,80.7-4.135a10.659,10.659,0,0,0-4.589.941A9.94,9.94,0,0,0,72.7-.576a11.529,11.529,0,0,0-2.147,4,16.794,16.794,0,0,0-.735,5.089V24.868H67.577Zm30.65-11.766h2.236V10.69L119.111-5.37h3.236L109.11,5.925l14.178,18.943h-3.059L107.345,7.631l-6.883,5.824V24.868H98.227Z" transform="translate(-10559.793 -17924.721)"/><g transform="translate(-10647.793 -17964.996)"><g transform="translate(4.955 0)"><path class="c" d="M47.279,66.092,0,0H18.069V0H66.777V12.818H28.335L39.418,28.2H66.777V41.018H48.655l8.621,11.963h9.5V65.8h-.265l.211.293Zm-46.07-.05L17.79,46.852a31.144,31.144,0,0,0,2.082,11.427,16.665,16.665,0,0,0,6.113,7.764Z" transform="translate(0)"/></g><g class="d" transform="translate(0 27.338)"><g transform="translate(4.955 -27.338)"><path class="e" d="M47.279,66.092,0,0H18.069V0H66.777V12.818H28.335L39.419,28.2H66.777V41.017H48.655l8.621,11.963h9.5V65.8h-.265l.211.293Zm-46.07-.05,16.581-19.19a31.148,31.148,0,0,0,2.082,11.427,16.667,16.667,0,0,0,6.113,7.763Z" transform="translate(0 0)"/></g></g></g></g></svg>